<?xml version="1.0" encoding="utf-8"?>
<!-- Uploaded to: SVG Repo, www.svgrepo.com, Generator: SVG Repo Mixer Tools -->
<svg fill="#000000" version="1.1" id="Layer_1" xmlns="http://www.w3.org/2000/svg" xmlns:xlink="http://www.w3.org/1999/xlink" 
	 viewBox="0 0 128 128" xml:space="preserve">
<rect x="31.3" y="7.2" width="21.7" height="15.5"/>
<path d="M77.5,74.2c-2.1,0-3.7-1.7-3.7-3.7V27.6h32.8l13.8,58.5l-0.1,3.8v25.9c0,2-1.6,3.6-3.6,3.6H84.8c-2,0-3.6-1.6-3.6-3.6V74.2
	h-3.4"/>
<path d="M49.2,74.3c2.1,0,3.7-1.7,3.7-3.7V27.7H20.2L6.3,86.2L6.4,90v25.9c0,2,1.6,3.6,3.6,3.6h31.9c2,0,3.6-1.6,3.6-3.6V74.3h3.4"
	/>
<rect x="57.7" y="27.7" width="11.2" height="39.8"/>
<rect x="73.8" y="7.2" width="21.7" height="15.5"/>
</svg>