<?xml version="1.0" encoding="iso-8859-1"?>
<!-- Uploaded to: SVG Repo, www.svgrepo.com, Generator: SVG Repo Mixer Tools -->
<svg fill="#000000" height="800px" width="800px" version="1.1" id="Layer_1" xmlns="http://www.w3.org/2000/svg" xmlns:xlink="http://www.w3.org/1999/xlink" 
	 viewBox="0 0 512 512" xml:space="preserve">
<g>
	<g>
		<path d="M180.026,296.131c-8.484,0-17.03-2.543-24.443-7.786v198.62c0,13.826,11.208,25.035,25.035,25.035
			c13.826,0,25.035-11.208,25.035-25.035V287.532C198.19,293.183,189.151,296.131,180.026,296.131z"/>
	</g>
</g>
<g>
	<g>
		<path d="M216.462,466.415v20.55c0,13.826,11.208,25.035,25.035,25.035s25.035-11.208,25.035-25.035v-20.55H216.462z"/>
	</g>
</g>
<g>
	<g>
		<path d="M336.213,189.467c-3.311-8.146-24.947-61.377-28.492-70.099c-8.01-19.708-26.931-32.442-48.205-32.442h-5.062
			c-11.097,10.954-26.328,17.73-43.117,17.73c-16.115,0-31.539-6.303-43.117-17.73h-6.184c-21.272,0-40.195,12.734-48.205,32.441
			c-3.545,8.721-25.18,61.954-28.492,70.1c-3.572,8.789-0.765,18.88,6.831,24.562l75.39,56.386
			c9.232,6.905,22.304,5.011,29.202-4.211c6.901-9.227,5.015-22.301-4.211-29.202l-62.495-46.741
			c10.355-25.477,15.992-39.586,19.277-47.569c0.589-1.431,2.107-2.246,3.625-1.946c1.518,0.301,2.611,1.632,2.611,3.179v38.497
			c54.736,40.938,51.791,38.461,55.206,42.039c3.42-3.585,0.476-1.105,55.3-42.109v-38.216h0.001c0-1.548,1.095-2.879,2.612-3.179
			c1.518-0.299,3.038,0.516,3.625,1.948c3.281,8,8.905,22.076,19.18,47.356l-62.495,46.741c-9.175,6.862-11.131,19.95-4.211,29.202
			c6.902,9.23,19.978,11.111,29.202,4.211l75.39-56.386C336.979,208.348,339.786,198.255,336.213,189.467z"/>
	</g>
</g>
<g>
	<g>
		<path d="M390.625,433.085c-20.366,0-36.936,16.208-37.543,36.427c-11.539-4.335-23.787-11.335-23.957-19.775
			c-0.118-5.851-2.652-10.938-7.329-14.711c-11.677-9.42-37.102-8.647-55.265-6.591V287.945c-7.539,5.515-16.306,8.186-25.002,8.186
			c-8.898,0-17.716-2.79-25.067-8.165v157.845c12.148,0,47.479,0,59.67,0c25.359-1.891,34.775,2.083,34.817,4.291
			c0.514,25.585,34.67,36.854,47.66,40.219c6.613,10.743,18.476,17.908,32.016,17.908c20.751,0,37.572-16.821,37.572-37.572
			C428.197,449.906,411.375,433.085,390.625,433.085z"/>
	</g>
</g>
<g>
	<g>
		<circle cx="211.344" cy="43.238" r="43.238"/>
	</g>
</g>
</svg>