<?xml version="1.0" encoding="iso-8859-1"?>
<!-- Uploaded to: SVG Repo, www.svgrepo.com, Generator: SVG Repo Mixer Tools -->
<!DOCTYPE svg PUBLIC "-//W3C//DTD SVG 1.1//EN" "http://www.w3.org/Graphics/SVG/1.1/DTD/svg11.dtd">
<svg fill="#000000" version="1.1" id="Capa_1" xmlns="http://www.w3.org/2000/svg" xmlns:xlink="http://www.w3.org/1999/xlink" 
	 width="800px" height="800px" viewBox="0 0 399.47 399.47"
	 xml:space="preserve">
<g>
	<g>
		<path d="M199.735,0C89.589,0,0.006,89.601,0.006,199.729c0,110.144,89.583,199.741,199.729,199.741
			c110.131,0,199.729-89.598,199.729-199.741C399.463,89.601,309.866,0,199.735,0z M199.735,362.396
			c-89.706,0-162.694-72.964-162.694-162.667c0-89.721,72.988-162.688,162.694-162.688c89.715,0,162.673,72.967,162.673,162.688
			C362.408,289.432,289.45,362.396,199.735,362.396z"/>
		<path d="M323.605,134.003c-9.38,1.48-21.882,4.008-22.031,7.013c-0.259,4.81,0.264,12.016,0,16.826
			c-0.259,4.807,4.918,15.625-0.078,18.021c-4.99,2.405-10.305,7.214-16.057,0c-5.753-7.206-10.562-19.726-10.562-19.726
			s2.401-22.332-6.012-23.529c-8.406-1.207-14.417,1.198-19.227,0c-4.804-1.207-3.604-15.625-4.804-1.207
			c-1.201,14.42-4.804,22.677-9.608,20.957c-4.804-1.723-14.417-1.729-22.83-6.536c-8.412-4.81-9.61-23.545-19.227-20.783
			c-9.611,2.759-15.625-0.273-15.625-0.273s-4.81,9.041,0,19.855c4.807,10.817,21.632,25.235,36.053,26.436
			c14.418,1.198,14.418,5.222,9.607,8.614c-4.804,3.401-26.433,9.409-30.042,18.423c-3.603,9.007-4.81,4.206-7.208,19.821
			c-2.402,15.625-12.67,40.862-10.539,45.661c2.129,4.804-3.879,13.216-13.49,13.216s-14.063,7.206-20.248,0
			s-6.185-28.841-10.995-39.649c-4.81-10.82-10.46-15.625-17.843-24.043c-7.392-8.407-16.141-22.827-16.141-22.827
			s-10.43-19.555-21.287-24.031c-8.313-3.426-10.929-1.654-11.721-0.622c-2.828,11.106-4.489,22.671-4.489,34.645
			c0,77.489,63.039,140.527,140.533,140.527c77.489,0,140.533-63.038,140.533-140.527
			C340.268,176.319,334.209,153.759,323.605,134.003z M229.209,258.776c-1.201,13.217-27.637,0-27.637,0s0,0-1.838-14.417
			c-1.837-14.424,6.645-16.825,17.453-22.83l12.021,14.411C229.209,235.94,230.411,245.555,229.209,258.776z"/>
	</g>
</g>
</svg>